<?xml version="1.0" standalone="no"?>
<!DOCTYPE svg PUBLIC "-//W3C//DTD SVG 20010904//EN"
 "http://www.w3.org/TR/2001/REC-SVG-20010904/DTD/svg10.dtd">
<svg version="1.0" xmlns="http://www.w3.org/2000/svg"
 width="300.000000pt" height="300.000000pt" viewBox="0 0 300.000000 300.000000"
 preserveAspectRatio="xMidYMid meet">
<metadata>
Created by potrace 1.10, written by Peter Selinger 2001-2011
</metadata>
<g transform="translate(0.000000,300.000000) scale(0.100000,-0.100000)"
fill="#000000" stroke="none">
<path d="M956 2326 c-44 -12 -76 -36 -76 -57 0 -3 24 -27 53 -52 29 -25 65
-68 81 -96 32 -60 32 -60 -48 -150 -91 -102 -143 -196 -178 -318 -30 -104 -32
-313 -5 -419 l19 -72 -41 -53 c-62 -81 -84 -147 -89 -259 -4 -103 11 -166 42
-184 15 -9 23 -5 44 23 15 19 62 69 104 110 42 42 84 93 93 114 l15 38 43 -25
c23 -14 83 -36 132 -49 50 -14 104 -30 121 -37 48 -20 68 -8 60 38 -20 110
-117 232 -214 268 -107 39 -112 42 -112 66 0 88 191 238 304 238 28 0 71 7 96
15 25 8 164 35 310 60 374 64 482 102 525 184 32 63 11 98 -92 149 -53 27 -61
35 -72 74 -76 256 -328 373 -678 312 l-91 -15 -48 30 c-102 65 -213 90 -298
67z m174 -41 c21 -8 64 -28 95 -45 68 -38 89 -43 135 -30 63 17 241 23 320 11
94 -14 203 -66 259 -123 23 -24 58 -77 77 -118 20 -41 41 -86 47 -98 6 -13 32
-34 57 -47 65 -33 100 -68 93 -94 -6 -25 -77 -91 -98 -91 -8 0 -19 9 -25 19
-11 21 -86 48 -140 50 -20 1 -47 4 -60 6 -50 10 -198 18 -223 11 -27 -6 -91
-69 -136 -131 -20 -29 -22 -39 -13 -59 10 -24 9 -24 -41 -31 -29 -4 -60 -12
-70 -17 -21 -11 -157 -27 -157 -19 0 3 18 26 40 51 54 60 83 123 83 178 0 60
-20 75 -91 69 -116 -12 -269 -146 -326 -287 -37 -92 -54 -178 -39 -205 7 -12
14 6 27 64 45 213 216 401 363 401 38 0 43 -2 43 -23 0 -80 -75 -189 -157
-227 -103 -48 -203 -134 -242 -208 -12 -22 -11 -23 8 -17 19 6 21 2 21 -44 0
-42 4 -53 27 -70 14 -12 38 -24 52 -27 97 -23 201 -127 225 -226 8 -33 -4 -41
-41 -27 -15 6 -59 19 -98 29 -38 9 -92 28 -118 41 -52 25 -72 21 -93 -19 -19
-38 -205 -225 -213 -216 -28 29 -30 205 -4 248 4 6 8 17 9 24 1 7 26 49 54 93
l52 81 -19 71 c-13 54 -18 108 -17 212 0 130 2 146 31 228 34 97 76 171 143
253 77 95 90 116 90 149 0 36 -41 103 -94 154 -20 19 -36 39 -36 43 0 5 15 15
33 23 36 16 105 12 167 -10z m777 -590 c253 -28 246 -33 -152 -99 -110 -19
-209 -37 -220 -42 -11 -4 13 29 54 74 l75 82 52 0 c29 0 114 -7 191 -15z"/>
<path d="M1760 1987 c-53 -27 -51 -109 3 -135 34 -16 64 -10 95 18 30 29 28
66 -7 101 -32 32 -53 35 -91 16z m78 -29 c7 -7 12 -24 12 -38 0 -34 -17 -50
-52 -50 -18 0 -33 8 -44 25 -15 23 -15 27 0 50 18 27 63 34 84 13z"/>
</g>
</svg>
